<svg width="436" height="368" viewBox="0 0 436 368" fill="none" xmlns="http://www.w3.org/2000/svg">
<path d="M11.8688 434.262H477.199C483.483 434.262 488.719 429.026 488.719 422.742V301.61C488.719 300.912 489.068 300.214 489.068 299.515C489.068 298.817 489.068 298.119 488.719 297.421V238.774C488.719 232.491 483.483 227.255 477.199 227.255H455.556V181.524C455.556 158.136 443.338 136.842 423.44 124.973V11.52C423.44 5.23645 418.204 0 411.921 0H367.238C360.954 0 355.718 5.23645 355.718 11.52V124.973C336.169 136.842 323.602 158.136 323.602 181.524V227.255H309.988V181.524C309.988 158.136 297.77 136.842 277.872 124.973V11.52C277.872 5.23645 272.636 0 266.352 0H221.669C215.386 0 210.149 5.23645 210.149 11.52V124.973C190.6 136.842 178.033 158.136 178.033 181.524V227.255H164.419V181.524C164.419 158.136 152.201 136.842 132.303 124.973V11.52C132.303 5.23645 127.067 0 120.783 0H76.1005C69.817 0 64.5808 5.23645 64.5808 11.52V124.973C45.032 136.842 32.4649 158.136 32.4649 181.524V227.255H11.8688C5.58524 227.255 0.349 232.491 0.349 238.774V359.907C0.349 360.605 0 361.303 0 362.001C0 362.7 -8.52311e-05 363.398 0.349 364.096V423.091C-8.52311e-05 429.375 5.23615 434.262 11.8688 434.262ZM465.68 350.133H23.3885V311.035H465.68V350.133ZM23.3885 411.223V373.521H465.68V411.223H23.3885ZM400.401 23.0398V38.0504H379.107V23.0398H400.401ZM346.991 181.175C346.991 164.419 356.765 149.059 372.125 142.078C376.314 140.332 379.107 136.143 379.107 131.605V61.0899H400.401V131.605C400.401 136.143 403.193 140.332 407.382 142.078C422.742 149.059 432.517 164.419 432.517 181.175V226.905H428.676C422.393 202.819 407.382 187.11 389.928 187.11C372.125 187.11 357.463 202.819 351.18 226.905H347.34V181.175H346.991ZM404.241 226.905H375.267C379.107 216.433 385.041 210.499 389.928 210.499C394.815 210.499 400.401 216.782 404.241 226.905ZM254.832 23.0398V38.0504H233.538V23.0398H254.832ZM201.422 181.175C201.422 164.419 211.196 149.059 226.556 142.078C230.745 140.332 233.538 136.143 233.538 131.605V61.0899H254.832V131.605C254.832 136.143 257.625 140.332 261.814 142.078C277.174 149.059 286.948 164.419 286.948 181.175V226.905H283.108C276.825 202.819 261.814 187.11 244.36 187.11C226.556 187.11 211.895 202.819 205.611 226.905H201.771V181.175H201.422ZM258.672 226.905H229.698C233.538 216.433 239.472 210.499 244.36 210.499C249.247 210.499 254.483 216.782 258.672 226.905ZM109.264 23.0398V38.0504H87.6203V23.0398H109.264ZM55.8536 181.175C55.8536 164.419 65.6279 149.059 80.9876 142.078C85.1766 140.332 87.9693 136.143 87.9693 131.605V61.0899H109.264V131.605C109.264 136.143 112.056 140.332 116.245 142.078C131.605 149.059 141.38 164.419 141.38 181.175V226.905H137.539C131.256 202.819 116.245 187.11 98.7911 187.11C80.9877 187.11 66.326 202.819 60.0425 226.905H56.2026V181.175H55.8536ZM113.103 226.905H84.1295C87.9694 216.433 93.9039 210.499 98.7911 210.499C103.678 210.499 108.914 216.782 113.103 226.905ZM43.9847 250.294H68.7696H127.765H152.55H189.553H214.338H273.334H298.119H335.122H359.907H418.902H443.687H465.33V287.995H23.3885V250.294H43.9847Z" fill="#CE5207" fill-opacity="0.28"/>
</svg>
