<svg width="386" height="493" viewBox="0 0 386 493" fill="none" xmlns="http://www.w3.org/2000/svg">
<path d="M-21.2954 489.816C-21.2954 517.197 1.01505 539 27.889 539H259.106C286.487 539 308.291 516.69 308.291 489.816V425.42H328.573C360.01 425.42 385.363 400.067 385.363 368.629V225.133C385.363 193.695 360.01 168.342 328.573 168.342H308.291V147.046C317.418 136.398 323.502 121.186 323.502 104.453C323.502 71.4949 300.685 45.1279 272.797 45.1279C267.219 45.1279 261.135 46.1421 256.064 48.6774C243.388 34.9869 226.655 27.381 208.908 27.381C199.781 27.381 191.161 29.4092 183.555 32.9586C167.329 12.1693 144.512 0 120.173 0C95.8345 0 73.017 12.1693 56.7912 32.4516C49.1853 28.9022 40.5654 27.381 32.4525 27.381C-5.06961 27.381 -36 61.8608 -36 104.453C-36 122.707 -30.4224 139.44 -20.7883 152.624V489.816H-21.2954ZM31.9454 181.526C40.5654 181.526 48.6783 180.005 56.2841 176.455C72.5099 197.245 95.3274 208.907 119.666 208.907C125.751 208.907 131.835 207.893 137.92 206.372C131.328 208.907 126.765 214.992 126.765 222.09V398.039C126.765 407.166 134.371 414.771 143.498 414.771C152.625 414.771 160.23 407.166 160.23 398.039V222.09C160.23 212.963 152.625 205.357 143.498 205.357C142.484 205.357 141.469 205.357 140.455 205.865C156.681 201.301 171.893 190.653 183.555 175.948C191.668 179.498 200.288 181.526 208.908 181.526C226.655 181.526 243.388 173.92 256.064 160.23C261.642 162.258 267.219 163.779 272.797 163.779C273.304 163.779 273.811 163.779 274.318 163.779V444.688H12.1703V178.484C18.2549 180.512 24.8467 181.526 31.9454 181.526ZM259.106 505.534H27.889C19.269 505.534 12.1703 498.436 12.1703 489.816V478.66H274.318V489.816C274.318 498.436 267.219 505.534 259.106 505.534ZM328.573 201.808C341.249 201.808 351.39 211.949 351.39 224.626V368.122C351.39 380.799 341.249 390.94 328.573 390.94H308.291V201.301H328.573V201.808ZM31.9454 61.3537C38.5372 61.3537 45.1289 63.889 50.7065 68.4525C54.763 71.4948 59.8335 73.016 64.904 72.0019C69.9746 70.9878 74.031 67.9454 76.5663 63.3819C86.7074 44.6209 102.933 33.4657 119.666 33.4657C136.906 33.4657 153.132 44.6209 163.273 63.889C165.808 68.4525 169.865 71.4948 174.935 72.5089C180.006 73.5231 185.076 72.0019 189.133 68.4525C193.189 64.9031 199.781 60.8467 208.908 60.8467C220.063 60.8467 230.711 67.9455 237.303 79.6077C239.838 84.1712 244.402 87.2135 249.979 88.2277C255.05 88.7347 260.627 87.2135 264.177 83.1571C266.205 81.1289 269.247 78.5936 273.304 78.5936C281.417 78.5936 290.037 89.2418 290.037 104.453C290.037 119.665 281.417 130.313 273.304 130.313C269.247 130.313 266.205 127.778 264.177 125.75C260.627 122.2 255.05 120.172 249.979 120.679C244.909 121.186 240.345 124.736 237.303 129.299C230.711 140.961 220.063 148.06 208.908 148.06C200.288 148.06 193.189 144.004 189.133 140.454C185.076 136.905 180.006 135.891 174.935 136.398C169.865 137.412 165.301 140.454 163.273 145.018C153.132 164.286 136.906 175.441 119.666 175.441C102.933 175.441 86.7074 164.286 76.5663 145.525C74.031 140.961 69.9746 137.919 64.904 136.905C63.8899 136.905 62.8758 136.398 61.8617 136.398C57.8053 136.398 54.2559 137.919 51.2135 140.454C45.6359 145.018 39.0442 147.553 32.4525 147.553C13.1844 147.553 -2.02729 128.285 -2.02729 103.946C-3.0414 80.6218 12.6773 61.3537 31.9454 61.3537Z" fill="#CE5207" fill-opacity="0.26"/>
<path d="M60.341 415.279C69.468 415.279 77.0739 407.673 77.0739 398.546V222.598C77.0739 213.471 69.468 205.865 60.341 205.865C51.214 205.865 43.6082 213.471 43.6082 222.598V398.546C43.1011 408.18 50.707 415.279 60.341 415.279Z" fill="#CE5207" fill-opacity="0.26"/>
<path d="M226.655 415.279C235.782 415.279 243.388 407.673 243.388 398.546V222.598C243.388 213.471 235.782 205.865 226.655 205.865C217.528 205.865 209.922 213.471 209.922 222.598V398.546C209.922 408.18 217.528 415.279 226.655 415.279Z" fill="#CE5207" fill-opacity="0.26"/>
</svg>
