<svg width="80" height="79" viewBox="0 0 80 79" fill="none" xmlns="http://www.w3.org/2000/svg">
<path d="M76.5664 14.5976L65.9666 14.4304L65.8921 9.67924C65.8755 8.82096 66.0307 7.96814 66.3485 7.17187C66.6663 6.37559 67.1402 5.65225 67.7416 5.04524C68.3431 4.43822 69.0598 3.96002 69.8487 3.63927C70.6377 3.31852 71.4827 3.16182 72.3331 3.17858L75.417 3.22666C76.3199 3.24129 76.264 4.3324 76.2785 5.24375L76.5664 14.5976Z" fill="#CE5207"/>
<path d="M76.9028 25.6787L66.1352 25.5094L66.0048 17.0795L76.646 17.2467L76.9028 25.6787Z" fill="#CE5207"/>
<path d="M77.244 36.7566L66.3087 36.5852L66.1782 28.1553L76.9872 28.3246L77.244 36.7566Z" fill="#CE5207"/>
<path d="M77.5824 47.8325L66.4794 47.6569L66.3468 39.229L77.3235 39.4004L77.5824 47.8325Z" fill="#CE5207"/>
<path d="M76.2937 60.0856L70.8177 59.9998C69.708 59.9727 68.6512 59.5156 67.8665 58.7233C67.0818 57.9309 66.6294 56.8641 66.6031 55.7441L66.5182 50.3094L77.6647 50.483L77.9091 58.4614C77.9125 58.6762 77.873 58.8894 77.7929 59.0884C77.7128 59.2874 77.5939 59.4681 77.4431 59.6197C77.2923 59.7713 77.1129 59.8906 76.9154 59.9707C76.7179 60.0507 76.5065 60.0898 76.2937 60.0856Z" fill="#CE5207"/>
<path d="M3.20715 63.1514L14.0824 63.2412L14.1217 68.1157C14.1292 69.0003 13.9621 69.8775 13.6301 70.6963C13.2981 71.515 12.8079 72.2588 12.1881 72.8843C11.5683 73.5099 10.8313 74.0046 10.0201 74.3396C9.2089 74.6747 8.3397 74.8433 7.46322 74.8358L4.30068 74.8087C3.37284 74.8087 3.43911 73.682 3.43083 72.7477L3.20715 63.1514Z" stroke="#CE5207" stroke-width="3.35094" stroke-miterlimit="10"/>
<path d="M2.94153 51.7877L13.9887 51.8776L14.0591 60.527L3.14242 60.4372L2.94153 51.7877Z" stroke="#CE5207" stroke-width="3.35094" stroke-miterlimit="10"/>
<path d="M2.67493 40.423L13.896 40.5149L13.9664 49.1644L2.87582 49.0745L2.67493 40.423Z" stroke="#CE5207" stroke-width="3.35094" stroke-miterlimit="10"/>
<path d="M2.41028 29.0604L13.8033 29.1545L13.8758 37.8018L2.61325 37.7099L2.41028 29.0604Z" stroke="#CE5207" stroke-width="3.35094" stroke-miterlimit="10"/>
<path d="M3.82521 16.4791L9.44404 16.525C10.58 16.5397 11.6651 17.0024 12.4675 17.8141C13.2698 18.6258 13.7256 19.7221 13.7374 20.8686L13.783 26.4516L2.34853 26.3576L2.15592 18.1742C2.15288 17.9517 2.1939 17.7307 2.27659 17.5243C2.35927 17.318 2.48195 17.1303 2.63743 16.9724C2.79291 16.8146 2.97806 16.6896 3.18202 16.6048C3.38598 16.5201 3.60465 16.4774 3.82521 16.4791Z" stroke="#CE5207" stroke-width="3.35094" stroke-miterlimit="10"/>
<path d="M65.6281 0.0822754L57.6689 13.4598L42.9788 13.5936C42.3721 13.5933 41.7713 13.7137 41.2107 13.9478C40.6501 14.182 40.1407 14.5253 39.7116 14.9581C39.2826 15.391 38.9422 15.9049 38.7099 16.4706C38.4777 17.0363 38.3582 17.6425 38.3582 18.2548V57.9361C38.3604 59.0655 37.9181 60.1496 37.1285 60.95C36.339 61.7504 35.2668 62.2016 34.1477 62.2043H25.1199L25.1199 26.7768C25.1199 23.2843 23.7452 19.9348 21.2982 17.4652C18.8513 14.9956 15.5326 13.6082 12.0721 13.6082H1.0415L1.0415 0.230675L65.6281 0.0822754Z" fill="#CE5207"/>
<path d="M14.802 77.002L25.4846 64.6299L39.2324 64.9852C40.4875 64.9852 41.6913 64.482 42.5788 63.5863C43.4663 62.6905 43.9648 61.4757 43.9648 60.209V24.5097C43.9648 23.4165 44.3951 22.368 45.1611 21.595C45.927 20.822 46.9658 20.3877 48.049 20.3877H56.1159V51.7665C56.1164 55.2721 57.4965 58.634 59.9526 61.1129C62.4088 63.5917 65.7399 64.9846 69.2134 64.9852H78.2101V77.2507L14.802 77.002Z" stroke="#CE5207" stroke-width="3.01931" stroke-miterlimit="10"/>
</svg>
