<svg width="22" height="21" viewBox="0 0 22 21" fill="none" xmlns="http://www.w3.org/2000/svg">
<path d="M14.354 13.1217C14.354 15.1097 12.4035 15.0637 12.1972 15.0637H8.22496V11.2345H12.1972C14.2872 11.2345 14.354 12.7298 14.354 13.1217ZM11.8913 9.69375C11.9242 9.69375 13.779 9.74063 13.779 7.99172C13.779 7.26422 13.6066 6.31031 11.8913 6.31031H8.22496V9.69375H11.8913V9.69375ZM22 3.50016V17.4998C21.9971 18.4273 21.6099 19.316 20.9229 19.9718C20.2358 20.6276 19.3048 20.9973 18.3332 21H3.66683C2.6952 20.9973 1.76419 20.6276 1.07714 19.9718C0.390091 19.316 0.00285013 18.4273 0 17.4998L0 3.50016C0.00285013 2.57269 0.390091 1.684 1.07714 1.02818C1.76419 0.37236 2.6952 0.00272057 3.66683 0H18.3332C19.3048 0.00272057 20.2358 0.37236 20.9229 1.02818C21.6099 1.684 21.9971 2.57269 22 3.50016V3.50016ZM16.6007 13.3997C16.6007 12.3886 16.2741 10.6673 14.192 10.2427V10.2084C15.317 9.75 16.0256 8.88422 16.0256 7.60031C16.0256 7.27219 16.1238 4.56375 12.2149 4.56375H5.9783V16.8136C12.2753 16.8136 12.8469 16.8923 14.0122 16.5459C14.71 16.3388 16.6007 15.7031 16.6007 13.3997V13.3997Z" fill="black"/>
</svg>
