<svg width="20" height="24" viewBox="0 0 20 24" fill="none" xmlns="http://www.w3.org/2000/svg">
<path d="M14.6724 8.00156C15.9693 8.00156 17.213 7.58005 18.13 6.82976C19.0471 6.07947 19.5622 5.06185 19.5622 4.00078C19.5622 2.93971 19.0471 1.92209 18.13 1.1718C17.213 0.42151 15.9693 0 14.6724 0L4.89271 0C3.5966 0 2.35358 0.421263 1.43709 1.17112C0.520607 1.92097 0.0057305 2.93799 0.0057305 3.99844C0.0057305 5.05889 0.520607 6.07591 1.43709 6.82576C2.35358 7.57561 3.5966 7.99688 4.89271 7.99688C3.59584 7.99688 2.35209 8.41838 1.43507 9.16868C0.518044 9.91897 0.00286596 10.9366 0.00286596 11.9977C0.00286596 13.0587 0.518044 14.0763 1.43507 14.8266C2.35209 15.5769 3.59584 15.9984 4.89271 15.9984C3.92559 15.998 2.98002 16.2322 2.17558 16.6714C1.37113 17.1106 0.74394 17.7352 0.373316 18.466C0.00269229 19.1969 -0.0947188 20.0013 0.0934012 20.7774C0.281521 21.5536 0.746723 22.2667 1.43018 22.8265C2.11364 23.3864 2.98465 23.7678 3.93308 23.9227C4.8815 24.0775 5.86474 23.9987 6.75846 23.6964C7.65218 23.394 8.41624 22.8815 8.95401 22.2239C9.49178 21.5662 9.77912 20.7928 9.77969 20.0016V8.00156H14.6724ZM14.6724 8.00156C13.7058 8.00156 12.761 8.23607 11.9573 8.67542C11.1537 9.11477 10.5273 9.73925 10.1574 10.4699C9.78753 11.2005 9.69076 12.0044 9.87932 12.7801C10.0679 13.5557 10.5333 14.2681 11.2168 14.8273C11.9002 15.3865 12.771 15.7673 13.719 15.9216C14.667 16.0759 15.6496 15.9967 16.5426 15.6941C17.4355 15.3914 18.1988 14.879 18.7358 14.2214C19.2728 13.5639 19.5594 12.7908 19.5594 12C19.5592 10.9396 19.0443 9.92264 18.1278 9.17282C17.2114 8.42299 15.9685 8.00169 14.6724 8.00156Z" fill="black"/>
</svg>
