<svg width="22" height="21" viewBox="0 0 22 21" fill="none" xmlns="http://www.w3.org/2000/svg">
<path d="M21.5851 9.56469L11.9822 0.395937C11.7163 0.142411 11.3559 0 10.9802 0C10.6044 0 10.244 0.142411 9.97812 0.395937L7.98142 2.30047L10.5114 4.71547C11.8403 4.28703 13.0984 5.50156 12.6422 6.76297L15.0808 9.09078C16.7618 8.53766 18.0852 10.5439 16.8227 11.7481C15.5218 12.9898 13.3749 11.6136 14.0727 9.99781L11.7966 7.82797V13.5397C13.039 14.1275 12.8897 15.5014 12.2424 16.1178C11.9262 16.4195 11.4974 16.5889 11.0504 16.5889C10.6033 16.5889 10.1745 16.4195 9.8583 16.1178C8.99549 15.2928 9.31468 13.9189 10.4108 13.4928V7.72719C9.38932 7.32828 9.20272 6.28625 9.4954 5.61781L7.00124 3.23422L0.414994 9.52203C0.149275 9.77572 0 10.1198 0 10.4785C0 10.8373 0.149275 11.1813 0.414994 11.435L10.0208 20.6037C10.2866 20.8572 10.6469 20.9996 11.0226 20.9996C11.3983 20.9996 11.7587 20.8572 12.0244 20.6037L21.5851 11.4777C21.8508 11.224 22.0001 10.8799 22.0001 10.5212C22.0001 10.1624 21.8508 9.81838 21.5851 9.56469V9.56469Z" fill="black"/>
</svg>
