<svg width="22" height="21" viewBox="0 0 22 21" fill="none" xmlns="http://www.w3.org/2000/svg">
<path d="M19.6429 0H2.35714C1.0558 0 0 1.00781 0 2.25V18.75C0 19.9922 1.0558 21 2.35714 21H19.6429C20.9442 21 22 19.9922 22 18.75V2.25C22 1.00781 20.9442 0 19.6429 0ZM11.9723 16.3781C11.9723 18.4219 10.7152 19.3547 8.88348 19.3547C7.22857 19.3547 6.27098 18.5391 5.77991 17.55L7.46429 16.5797C7.78839 17.1281 8.08304 17.5922 8.79509 17.5922C9.47277 17.5922 9.90491 17.3391 9.90491 16.35V9.64219H11.9723V16.3781V16.3781ZM16.8634 19.3547C14.9433 19.3547 13.7009 18.4828 13.0969 17.3391L14.7812 16.4109C15.2232 17.1 15.8027 17.6109 16.8192 17.6109C17.6737 17.6109 18.2237 17.2031 18.2237 16.6359C18.2237 15.9609 17.6638 15.7219 16.7161 15.3234L16.2004 15.1125C14.7076 14.5078 13.7205 13.7437 13.7205 12.1359C13.7205 10.6547 14.904 9.52969 16.7455 9.52969C18.0616 9.52969 19.0045 9.96563 19.6821 11.1094L18.0714 12.0938C17.7179 11.4891 17.3348 11.25 16.7406 11.25C16.1366 11.25 15.7536 11.6156 15.7536 12.0938C15.7536 12.6844 16.1366 12.9234 17.0254 13.2938L17.5411 13.5047C19.2991 14.2219 20.2862 14.9578 20.2862 16.6078C20.2862 18.3797 18.8228 19.3547 16.8634 19.3547V19.3547Z" fill="black"/>
</svg>
