<svg width="22" height="19" viewBox="0 0 22 19" fill="none" xmlns="http://www.w3.org/2000/svg">
<path d="M10.8728 18.3743C10.8006 18.3743 10.7284 18.3462 10.6631 18.2993L10.0031 17.7649C9.90344 17.6899 9.95156 17.6618 9.98594 17.6478C10.1166 17.5868 10.1441 17.5728 10.285 17.4603C10.2988 17.4509 10.3194 17.4556 10.3331 17.4649L10.8419 17.8774C10.8591 17.8915 10.8866 17.8915 10.9038 17.8774L12.8906 16.3118C12.9078 16.2978 12.9216 16.2696 12.9216 16.2368V13.1103C12.9216 13.0774 12.9113 13.0493 12.8906 13.0353L10.9038 11.4743C10.8866 11.4603 10.8625 11.4603 10.8419 11.4743L8.855 13.0353C8.83438 13.0493 8.82406 13.0821 8.82406 13.1103V16.2368C8.82406 16.2649 8.83781 16.2931 8.855 16.3071L9.39812 16.7337C9.69375 16.9353 9.87594 16.6962 9.87594 16.4618V13.3728C9.87594 13.3306 9.9 13.2931 9.93438 13.2931H10.1853C10.2162 13.2931 10.2438 13.3259 10.2438 13.3728V16.4618C10.2438 17.0009 10.0306 17.3056 9.65594 17.3056C9.5425 17.3056 9.44969 17.3056 9.19875 17.1368L8.67625 16.729C8.54906 16.6259 8.46656 16.4384 8.46656 16.2368V13.1103C8.46656 12.9087 8.54562 12.7165 8.67625 12.6181L10.6631 11.0524C10.7903 10.954 10.9553 10.954 11.0791 11.0524L13.0659 12.6181C13.1931 12.7212 13.2756 12.9087 13.2756 13.1103V16.2368C13.2756 16.4384 13.1966 16.6306 13.0659 16.729L11.0791 18.2946C11.0206 18.3462 10.9484 18.3743 10.8728 18.3743V18.3743ZM12.4781 15.2899C12.4781 14.704 12.1894 14.5493 11.5775 14.4368C10.9587 14.3243 10.8969 14.2681 10.8969 14.0712C10.8969 13.9071 10.9484 13.6915 11.4056 13.6915C11.8147 13.6915 11.9659 13.8134 12.0278 14.1884C12.0347 14.2259 12.0553 14.2493 12.0828 14.2493H12.3406C12.3578 14.2493 12.3716 14.2399 12.3819 14.2259C12.3922 14.2071 12.3991 14.1884 12.3956 14.1649C12.3544 13.5181 12.0416 13.2181 11.4056 13.2181C10.8384 13.2181 10.5016 13.5462 10.5016 14.0899C10.5016 14.6853 10.8384 14.8446 11.3816 14.9196C12.0313 15.0087 12.0828 15.1353 12.0828 15.3087C12.0828 15.6134 11.9041 15.7399 11.4847 15.7399C10.9588 15.7399 10.8419 15.5618 10.8041 15.2056C10.8006 15.1681 10.7766 15.1399 10.7456 15.1399H10.4878C10.4569 15.1399 10.4294 15.1728 10.4294 15.2196C10.4294 15.6743 10.6116 16.2181 11.4813 16.2181C12.1172 16.2181 12.4781 15.8806 12.4781 15.2899V15.2899ZM14.3516 12.9415C14.3516 13.2274 14.1797 13.4618 13.97 13.4618C13.7603 13.4618 13.5884 13.2274 13.5884 12.9415C13.5884 12.6462 13.7672 12.4212 13.97 12.4212C14.1763 12.4165 14.3516 12.6462 14.3516 12.9415ZM14.2897 12.9415C14.2897 12.6978 14.1453 12.5056 13.9666 12.5056C13.7912 12.5056 13.6469 12.6978 13.6469 12.9415C13.6469 13.1853 13.7912 13.3821 13.9666 13.3821C14.1453 13.3774 14.2897 13.1806 14.2897 12.9415ZM14.135 13.2321H14.0456C14.0422 13.204 14.0284 13.054 14.0284 13.0493C14.0216 13.0165 14.0147 12.9978 13.9837 12.9978H13.9081V13.2321H13.8256V12.6462H13.9734C14.025 12.6462 14.1247 12.6462 14.1247 12.8009C14.1247 12.9087 14.0731 12.9321 14.0422 12.9462C14.1006 12.9509 14.1041 13.0024 14.1144 13.0774C14.1178 13.1243 14.1247 13.204 14.135 13.2321V13.2321ZM14.0388 12.8196C14.0388 12.7399 13.9975 12.7399 13.9769 12.7399H13.9081V12.904H13.9734C14.0284 12.904 14.0388 12.8524 14.0388 12.8196V12.8196ZM4.71969 6.13994C4.71969 6.01338 4.67156 5.90088 4.5925 5.83994L2.48531 4.18526C2.45094 4.15713 2.40969 4.14307 2.36844 4.13838H2.34781C2.30656 4.13838 2.26875 4.15713 2.23094 4.18526L0.127188 5.83994C0.048125 5.90088 0 6.01807 0 6.13994L0.0034375 10.5931C0.0034375 10.654 0.0275 10.7103 0.0653125 10.7431C0.103125 10.7759 0.15125 10.7759 0.1925 10.7431L1.44375 9.76338C1.52281 9.69776 1.57094 9.58526 1.57094 9.46338V7.38213C1.57094 7.26026 1.61906 7.14307 1.69813 7.08213L2.23094 6.66494C2.27219 6.63213 2.31344 6.61807 2.35812 6.61807C2.40281 6.61807 2.4475 6.63213 2.48531 6.66494L3.01813 7.08213C3.09719 7.14307 3.14531 7.26026 3.14531 7.38213V9.46338C3.14531 9.58526 3.19344 9.70244 3.2725 9.76338L4.52375 10.7431C4.56156 10.7759 4.61313 10.7759 4.65094 10.7431C4.68875 10.7149 4.71281 10.654 4.71281 10.5931L4.71969 6.13994ZM16.2422 1.27901V9.54776C16.2422 9.66963 16.1941 9.78682 16.115 9.84776L14.0078 11.5071C13.9288 11.5681 13.8325 11.5681 13.7534 11.5071L11.6462 9.84776C11.5672 9.78682 11.5191 9.66963 11.5191 9.54776V6.22901C11.5191 6.10713 11.5672 5.98994 11.6462 5.92901L13.7534 4.26963C13.8325 4.20869 13.9288 4.20869 14.0078 4.26963L14.5337 4.68213C14.5922 4.72901 14.6678 4.66807 14.6678 4.57901V0.172757C14.6678 0.0415068 14.7709 -0.0428683 14.8569 0.0227567L16.1116 0.979007C16.1906 1.03526 16.2422 1.15244 16.2422 1.27901V1.27901ZM14.6609 7.32119C14.6609 7.28838 14.6472 7.26026 14.63 7.24619L13.9081 6.67432C13.8875 6.66026 13.8634 6.66026 13.8428 6.67432L13.1209 7.24619C13.1003 7.26026 13.09 7.28838 13.09 7.32119V8.46026C13.09 8.49307 13.1038 8.52119 13.1209 8.53526L13.8428 9.10244C13.8634 9.11651 13.8875 9.11651 13.9047 9.10244L14.6266 8.53526C14.6472 8.52119 14.6575 8.49307 14.6575 8.46026V7.32119H14.6609ZM21.8728 7.28838C21.9519 7.22744 22 7.11026 22 6.98838V6.18682C22 6.06494 21.9519 5.94776 21.8728 5.88682L19.7794 4.22744C19.7003 4.16651 19.6041 4.16651 19.525 4.22744L17.4178 5.88682C17.3388 5.94776 17.2906 6.06494 17.2906 6.18682V9.50557C17.2906 9.63213 17.3388 9.74463 17.4178 9.80557L19.5112 11.4321C19.5869 11.4931 19.6831 11.4931 19.7622 11.4321L21.0272 10.4712C21.1131 10.4056 21.1131 10.2368 21.0272 10.1712L18.9063 8.51182C18.865 8.47901 18.8409 8.42276 18.8409 8.36182V7.32119C18.8409 7.26026 18.865 7.20401 18.9063 7.17119L19.5663 6.65088C19.6041 6.61807 19.6556 6.61807 19.6934 6.65088L20.3534 7.17119C20.3912 7.20401 20.4188 7.26026 20.4188 7.32119V8.13682C20.4188 8.26807 20.5253 8.35244 20.6112 8.28682L21.8728 7.28838V7.28838ZM19.2156 7.45244C19.2019 7.46651 19.1916 7.48526 19.1916 7.50869V8.14619C19.1916 8.16963 19.2019 8.19307 19.2156 8.20244L19.6213 8.52119C19.635 8.53526 19.6556 8.53526 19.6694 8.52119L20.075 8.20244C20.0888 8.18838 20.0991 8.16963 20.0991 8.14619V7.50869C20.0991 7.48526 20.0888 7.46182 20.075 7.45244L19.6694 7.13369C19.6556 7.11963 19.635 7.11963 19.6213 7.13369L19.2156 7.45244ZM10.4775 9.49151V6.19151C10.4775 6.06963 10.4225 5.95244 10.3434 5.89151L8.24313 4.24151C8.17094 4.18526 8.07125 4.17588 7.98875 4.24151L5.88844 5.89151C5.80938 5.95244 5.75437 6.06494 5.75437 6.19151V9.49151C5.75437 9.62276 5.81969 9.73526 5.89187 9.79151L7.99563 11.4415C8.07813 11.5071 8.17438 11.5024 8.25 11.4415L10.3469 9.79151C10.4088 9.74463 10.4534 9.66494 10.4706 9.57119C10.4741 9.54776 10.4775 9.51963 10.4775 9.49151ZM7.92344 3.63682L7.89594 3.66026H7.93375L7.92344 3.63682V3.63682ZM10.5428 9.73994L10.5291 9.70713V9.74932L10.5428 9.73994Z" fill="black"/>
</svg>
