<svg width="22" height="22" viewBox="0 0 22 22" fill="none" xmlns="http://www.w3.org/2000/svg">
<path d="M17.9695 6.80566C17.7375 6.72129 17.5055 6.6416 17.2734 6.5666C17.3121 6.39316 17.3465 6.21973 17.3809 6.04629C17.9094 3.25254 17.5613 1.00723 16.3883 0.266601C15.2582 -0.441211 13.4148 0.294726 11.55 2.0666C11.3652 2.24004 11.1848 2.42285 11.0129 2.60566C10.8969 2.48379 10.7766 2.36191 10.6562 2.24473C8.70117 0.350976 6.7418 -0.445899 5.56875 0.299414C4.44297 1.01191 4.10781 3.12598 4.58047 5.76973C4.62773 6.03223 4.6793 6.29004 4.73945 6.55254C4.46445 6.63691 4.19375 6.73066 3.94023 6.8291C1.6457 7.69629 0 9.06504 0 10.4807C0 11.9432 1.75313 13.4104 4.13789 14.301C4.33125 14.3713 4.52461 14.4416 4.72227 14.5025C4.65781 14.7838 4.60195 15.0604 4.55039 15.3463C4.09922 17.9479 4.45156 20.0104 5.57734 20.7182C6.7375 21.4494 8.68828 20.6994 10.5875 18.8854C10.7379 18.74 10.8883 18.59 11.0387 18.4307C11.2277 18.6322 11.4254 18.8244 11.623 19.0119C13.4621 20.7369 15.2797 21.4354 16.4012 20.7275C17.5613 19.9963 17.9395 17.7791 17.4496 15.0791C17.4109 14.8729 17.368 14.6619 17.3207 14.4463C17.4582 14.4041 17.5914 14.3572 17.7246 14.3104C20.2039 13.415 22 11.9666 22 10.4807C22 9.06035 20.307 7.68223 17.9695 6.80566V6.80566ZM12.1559 2.82598C13.7543 1.30723 15.2453 0.711914 15.9242 1.13848C16.6504 1.59316 16.9297 3.43066 16.4742 5.84473C16.4441 6.0041 16.4141 6.15879 16.3754 6.31348C15.4215 6.0791 14.4547 5.91035 13.4836 5.8166C12.925 4.94473 12.3148 4.11035 11.6531 3.32754C11.8207 3.1541 11.984 2.99004 12.1559 2.82598V2.82598ZM7.18437 12.9135C7.40352 13.3213 7.62695 13.7291 7.86328 14.1275C7.19297 14.0479 6.52695 13.9307 5.86953 13.776C6.05859 13.101 6.29492 12.4025 6.56992 11.69C6.76758 12.1025 6.96953 12.5104 7.18437 12.9135V12.9135ZM5.88242 7.27441C6.50117 7.12441 7.15859 7.00254 7.8418 6.90879C7.61406 7.29785 7.39063 7.69629 7.18008 8.09941C6.96953 8.49785 6.76328 8.90566 6.56992 9.31816C6.29922 8.61973 6.07148 7.93535 5.88242 7.27441ZM7.05977 10.5041C7.34336 9.85723 7.65273 9.22441 7.9793 8.60098C8.30586 7.97754 8.6582 7.37285 9.02773 6.77754C9.67227 6.72598 10.3297 6.69785 11 6.69785C11.6703 6.69785 12.332 6.72598 12.9723 6.77754C13.3375 7.36816 13.6855 7.97285 14.0164 8.5916C14.3473 9.21035 14.6566 9.84316 14.9488 10.4854C14.6609 11.1322 14.3516 11.7697 14.0207 12.3979C13.6941 13.0213 13.3461 13.626 12.9809 14.226C12.3406 14.2775 11.6746 14.301 11 14.301C10.3254 14.301 9.67227 14.2775 9.04062 14.2354C8.6668 13.64 8.31445 13.0307 7.98359 12.4072C7.65273 11.7838 7.34766 11.151 7.05977 10.5041ZM14.8199 12.9041C15.0391 12.4916 15.2453 12.0744 15.4473 11.6525C15.7223 12.3322 15.9629 13.0213 16.1734 13.7291C15.5074 13.8932 14.8328 14.0197 14.1539 14.1041C14.3859 13.7104 14.6051 13.3072 14.8199 12.9041ZM15.4387 9.31816C15.2367 8.90566 15.0305 8.49316 14.8156 8.09004C14.6051 7.6916 14.3859 7.29785 14.1582 6.90879C14.85 7.00254 15.5117 7.1291 16.1305 7.28379C15.9328 7.97754 15.7008 8.65254 15.4387 9.31816V9.31816ZM11.0086 4.04473C11.4598 4.5791 11.8852 5.1416 12.2805 5.72285C11.4297 5.68066 10.5746 5.68066 9.72383 5.72285C10.1449 5.11816 10.5789 4.55566 11.0086 4.04473ZM6.02422 1.17129C6.74609 0.711914 8.34883 1.36816 10.0375 2.99941C10.1449 3.10254 10.2523 3.21504 10.3641 3.32754C9.69805 4.11035 9.08359 4.94473 8.5207 5.8166C7.54961 5.91035 6.58711 6.07441 5.6332 6.3041C5.57734 6.06504 5.53008 5.82129 5.48281 5.57754C5.07891 3.30879 5.34531 1.59785 6.02422 1.17129V1.17129ZM4.97148 13.5275C4.79102 13.4713 4.61484 13.4104 4.43867 13.3447C3.52344 13.0307 2.48359 12.5338 1.73164 11.8822C1.29766 11.5541 1.00547 11.0479 0.923828 10.4807C0.923828 9.62285 2.28164 8.52598 4.24102 7.78066C4.48594 7.68691 4.73516 7.60254 4.98438 7.52285C5.27656 8.54004 5.62891 9.53848 6.03711 10.5041C5.62461 11.4838 5.26797 12.4963 4.97148 13.5275V13.5275ZM9.98164 18.1213C9.27266 18.8291 8.45195 19.3916 7.5582 19.776C7.08125 20.0244 6.53125 20.0479 6.04141 19.8369C5.3582 19.4057 5.07461 17.751 5.46133 15.5244C5.50859 15.2619 5.56016 14.9994 5.62031 14.7416C6.58281 14.9666 7.55391 15.1213 8.53789 15.201C9.10508 16.0775 9.72812 16.9166 10.3941 17.7041C10.2566 17.8494 10.1191 17.99 9.98164 18.1213ZM11.0344 16.9822C10.5961 16.4666 10.1578 15.8947 9.73242 15.2807C10.1449 15.2994 10.5703 15.3088 11 15.3088C11.4426 15.3088 11.8766 15.2994 12.3062 15.276C11.9109 15.8713 11.4855 16.4385 11.0344 16.9822V16.9822ZM16.6504 18.3885C16.6117 18.9604 16.3539 19.4947 15.9414 19.8557C15.2582 20.2869 13.8016 19.7244 12.2289 18.2525C12.0484 18.0838 11.868 17.901 11.6832 17.7135C12.3406 16.9213 12.9465 16.0822 13.4965 15.201C14.4805 15.1119 15.4602 14.9479 16.427 14.7088C16.4699 14.901 16.5086 15.0932 16.543 15.2807C16.7535 16.2932 16.7879 17.3479 16.6504 18.3885V18.3885ZM17.4324 13.3494C17.3121 13.3916 17.1918 13.4338 17.0672 13.4713C16.7664 12.4494 16.3969 11.451 15.9715 10.4807C16.384 9.52441 16.732 8.54004 17.0242 7.53223C17.2477 7.60254 17.4625 7.67754 17.6688 7.75254C19.6711 8.50254 21.0762 9.61816 21.0762 10.4713C21.0762 11.39 19.5766 12.576 17.4324 13.3494ZM11 12.6463C12.0871 12.6463 12.968 11.6854 12.968 10.4994C12.968 9.31348 12.0871 8.35254 11 8.35254C9.91289 8.35254 9.03203 9.31348 9.03203 10.4994C9.03203 11.6854 9.91289 12.6463 11 12.6463Z" fill="black"/>
</svg>
