<svg width="22" height="24" viewBox="0 0 22 24" fill="none" xmlns="http://www.w3.org/2000/svg">
<path d="M18.5434 0L22 7.5H18.1385L15.4955 0H18.5434ZM13.6545 0L16.2976 7.5H5.70243L8.34549 0H13.6545ZM3.4566 0H6.50451L3.86146 7.5H0L3.4566 0ZM0 9H3.84618L8.5441 20.7984C8.60139 20.9438 8.44097 21.075 8.35312 20.9531L0 9ZM5.66042 9H16.3396L11.1069 23.9156C11.0687 24.0281 10.9351 24.0281 10.8969 23.9156L5.66042 9ZM13.4559 20.7984L18.1538 9H22L13.6469 20.9484C13.559 21.075 13.3986 20.9438 13.4559 20.7984Z" fill="black"/>
</svg>
