<svg width="22" height="23" viewBox="0 0 22 23" fill="none" xmlns="http://www.w3.org/2000/svg">
<path d="M10.3756 17.0117C10.3653 17.0398 10.355 17.0623 10.3756 17.0117V17.0117ZM18.9395 12.9336C18.2481 12.9332 17.566 13.1498 16.9457 13.5664C16.7429 13.0086 16.5332 12.5211 16.4989 12.1554C16.4576 11.7289 16.4129 11.4757 16.4611 10.9695C16.5092 10.4632 16.7257 9.74605 16.7223 9.69449C16.7189 9.64293 16.6742 9.38511 16.2307 9.38043C15.7873 9.37574 15.4057 9.49761 15.3614 9.65699C15.2831 9.94825 15.2222 10.2477 15.1792 10.5523C15.1001 11.1007 14.2927 13.0601 13.8355 14.082C13.6842 13.6836 13.5571 13.332 13.5296 13.0507C13.4883 12.6242 13.4436 12.371 13.4917 11.8648C13.5399 11.3586 13.7564 10.6414 13.753 10.5898C13.7496 10.5382 13.7049 10.2804 13.2618 10.2757C12.8187 10.2711 12.4368 10.3929 12.3921 10.5523C12.3474 10.7117 12.2993 11.0867 12.2099 11.4476C12.1205 11.8086 11.0449 15.071 10.7634 15.9195C10.619 16.3507 10.4953 16.6976 10.4059 16.932C10.3921 16.9695 10.3818 16.9929 10.375 17.0117C10.3853 16.9882 10.3921 16.9648 10.3921 16.9742C10.3165 17.1757 10.2718 17.2882 10.2718 17.2882V17.2929C10.2134 17.4429 10.1481 17.5789 10.1171 17.5789C10.0965 17.5789 10.0518 17.1851 10.1275 16.646C10.289 15.5117 10.6706 13.7492 10.6671 13.6882C10.6637 13.6554 10.7393 13.3507 10.4162 13.1867C10.1034 13.032 9.98995 13.2898 9.96245 13.2898C9.93495 13.2898 9.91433 13.3835 9.91433 13.3835C9.91433 13.3835 10.2615 11.3961 9.2478 11.3961C8.6153 11.3961 7.73529 12.3429 7.30286 13.2007C7.03129 13.4023 6.44348 13.8382 5.82473 14.3023C5.58754 14.4804 5.34348 14.6632 5.11317 14.8367C5.09598 14.8132 5.08223 14.7898 5.06504 14.7664C3.83476 12.9757 1.56325 11.7101 1.6595 9.30543C1.69388 8.42886 1.91732 6.1273 6.02754 3.33355C9.3963 1.04605 12.0896 1.67418 12.5533 3.07105C13.2202 5.06324 11.1133 8.77105 7.61498 9.30543C6.28157 9.50699 5.58067 8.80386 5.40535 8.54136C5.22317 8.2648 5.19567 8.25074 5.12692 8.3023C5.01348 8.38668 5.08567 8.63043 5.12692 8.77574C5.23004 9.14605 5.65973 9.8023 6.39157 10.1304C7.03439 10.4164 8.59776 10.5757 10.488 9.5773C12.6117 8.46168 14.2648 5.35386 13.7801 2.7523C13.2865 0.108551 10.0718 -0.758636 7.03198 0.713239C5.22076 1.5898 3.26207 2.96793 1.85304 4.76324C0.179315 6.90074 -0.0884664 8.76168 0.0215338 9.5398C0.413066 12.3007 3.20363 14.1007 4.32048 15.432C4.26548 15.4742 4.21391 15.5117 4.16579 15.5492C3.60582 15.9289 1.47835 17.4476 0.945879 19.0507C0.344316 20.8695 1.04557 22.1726 1.50585 22.3507C2.94238 22.8945 4.41329 21.9148 5.20357 20.307C5.99385 18.6992 5.89795 16.5992 5.53357 15.6429C5.53014 15.6289 5.52326 15.6195 5.51982 15.6054C5.6642 15.4882 5.81201 15.3711 5.95982 15.2539C6.24479 15.0242 6.52323 14.8132 6.76729 14.6304C6.62979 15.1367 6.53011 15.7461 6.47854 16.6273C6.41667 17.6585 6.72948 18.9945 7.13511 19.5195C7.31386 19.7492 7.53008 19.7539 7.66414 19.7539C8.13851 19.7539 8.35164 19.2195 8.58848 18.582C8.88067 17.8039 9.13848 16.8992 9.13848 16.8992C9.13848 16.8992 8.81536 19.346 9.6988 19.346C10.0216 19.346 10.3447 18.7789 10.4894 18.4882V18.4929C10.4894 18.4929 10.4963 18.4742 10.5135 18.4367C10.5479 18.3664 10.565 18.3242 10.565 18.3242V18.3101C10.6957 18.0054 10.981 17.307 11.4103 16.1539C11.9672 14.6632 12.4997 12.8023 12.4997 12.8023C12.5511 13.2114 12.6223 13.6154 12.7128 14.0117C12.8091 14.457 13.0119 14.9445 13.1734 15.4179C13.0428 15.6617 12.9637 15.8023 12.9637 15.8023C12.964 15.8059 12.9652 15.8092 12.9672 15.8117C12.8641 15.9992 12.7472 16.2007 12.6269 16.3976C12.1872 17.1101 11.6644 17.9257 11.5956 18.1601C11.5131 18.4367 11.5337 18.6429 11.6919 18.8023C11.8087 18.9242 12.015 18.9429 12.2312 18.9195C12.6265 18.882 12.905 18.7507 13.039 18.6664C13.2862 18.5455 13.5198 18.3783 13.7331 18.1695C14.1627 17.7382 14.424 17.1195 14.3999 16.3039C14.3862 15.8539 14.2796 15.4039 14.149 14.982C14.1868 14.907 14.2281 14.8273 14.2659 14.7476C14.9461 13.3929 15.4721 11.9061 15.4721 11.9061C15.5235 12.3151 15.5947 12.7191 15.6852 13.1154C15.7677 13.4951 15.9289 13.9123 16.0767 14.3201C15.4377 15.0279 15.0424 15.8482 14.9049 16.3873C14.6505 17.3857 14.8499 17.8357 15.2246 17.9389C15.393 17.9857 15.6336 17.8779 15.8124 17.7748C16.0779 17.6542 16.3282 17.4787 16.5546 17.2545C16.9842 16.8232 17.3998 16.2185 17.3723 15.3982C17.362 15.0279 17.2864 14.6576 17.1867 14.3014C17.7264 13.992 18.4273 13.8232 19.3211 13.9639C21.2351 14.2685 21.6098 15.8998 21.5376 16.5795C21.4654 17.2592 21.0632 17.6389 20.9291 17.7514C20.7951 17.8639 20.7538 17.906 20.7641 17.9904C20.7813 18.1123 20.8432 18.1076 20.9566 18.0795C21.1148 18.042 21.96 17.5264 21.9978 16.2654C22.0528 14.6717 20.9291 12.9185 18.9385 12.9326L18.9395 12.9336ZM4.18641 19.7164C3.55426 20.6585 2.66738 21.0148 2.28616 20.7148C1.8771 20.3904 2.03866 19.0039 2.81863 17.9998C3.29301 17.3904 3.90454 16.8279 4.31016 16.4811C4.40298 16.4061 4.53704 16.2936 4.70204 16.1576C4.72954 16.1342 4.74329 16.1248 4.74329 16.1248C4.77423 16.0967 4.8086 16.0732 4.84298 16.0451C5.12795 17.4701 4.85329 18.7264 4.18641 19.7154V19.7164ZM8.80505 15.432C8.58505 16.1679 8.12133 18.0429 7.83945 17.9445C7.59883 17.8601 7.45101 16.4304 7.79133 15.0242C7.9632 14.3164 8.32758 13.4726 8.54414 13.1445C8.89098 12.6148 9.27255 12.446 9.36192 12.657C9.48223 12.9335 8.94255 14.9726 8.80505 15.432ZM12.6207 17.9164C12.5279 17.982 12.4419 18.0242 12.4007 17.9914C12.3697 17.9679 12.4385 17.8789 12.4385 17.8789C12.4385 17.8789 12.9163 17.1804 13.1054 16.8617C13.2154 16.6742 13.3426 16.4539 13.4797 16.2101C13.4797 16.2336 13.4831 16.257 13.4831 16.2851C13.4787 17.1242 12.8878 17.6914 12.6196 17.9164H12.6207ZM15.5625 17.0023C15.4937 16.9367 15.5041 16.7164 15.7344 16.032C15.8237 15.7648 16.0297 15.3148 16.3875 14.8835C16.428 15.0468 16.45 15.2175 16.4528 15.3898C16.4494 16.4445 15.8959 16.8382 15.5628 17.0023H15.5625Z" fill="black"/>
</svg>
